<svg width="904" height="719" viewBox="0 0 904 719" fill="none" xmlns="http://www.w3.org/2000/svg">
<g filter="url(#filter0_d)">
<rect x="60.001" y="60" width="764" height="579" fill="#F9F9FA"/>
</g>
<path fill-rule="evenodd" clip-rule="evenodd" d="M614.513 256.668C616.17 256.668 617.513 255.325 617.513 253.668C617.513 252.011 616.17 250.668 614.513 250.668C612.856 250.668 611.513 252.011 611.513 253.668C611.513 255.325 612.856 256.668 614.513 256.668Z" fill="#D20000"/>
<path fill-rule="evenodd" clip-rule="evenodd" d="M681.013 256.668C682.946 256.668 684.513 255.325 684.513 253.668C684.513 252.011 682.946 250.668 681.013 250.668C679.08 250.668 677.513 252.011 677.513 253.668C677.513 255.325 679.08 256.668 681.013 256.668Z" fill="#1D4E89"/>
<path fill-rule="evenodd" clip-rule="evenodd" d="M747.985 257.592C749.902 257.592 751.457 256.042 751.457 254.13C751.457 252.218 749.902 250.668 747.985 250.668C746.067 250.668 744.513 252.218 744.513 254.13C744.513 256.042 746.067 257.592 747.985 257.592Z" fill="#0077FF"/>
<path fill-rule="evenodd" clip-rule="evenodd" d="M586 128.668H623.026C624.399 128.668 625.513 129.787 625.513 131.168C625.513 132.549 624.399 133.668 623.026 133.668H586C584.626 133.668 583.513 132.549 583.513 131.168C583.513 129.787 584.626 128.668 586 128.668V128.668Z" fill="#95A2AA"/>
<path fill-rule="evenodd" clip-rule="evenodd" d="M733.117 128.668H749.32C750.758 128.668 751.924 129.831 751.924 131.265C751.924 132.699 750.758 133.861 749.32 133.861H733.117C731.679 133.861 730.513 132.699 730.513 131.265C730.513 129.831 731.679 128.668 733.117 128.668V128.668Z" fill="#E6ECF0"/>
<path fill-rule="evenodd" clip-rule="evenodd" d="M679.939 235.939C655.155 235.939 634.993 215.801 634.993 191.047C634.993 166.294 655.155 146.156 679.939 146.156C681.553 146.156 682.862 147.463 682.862 149.076C682.862 150.688 681.553 151.995 679.939 151.995C658.379 151.995 640.839 169.514 640.839 191.047C640.839 212.58 658.379 230.1 679.939 230.1C691.679 230.1 702.693 224.899 710.157 215.831C711.183 214.586 713.025 214.405 714.272 215.43C715.519 216.454 715.699 218.294 714.674 219.539C706.095 229.962 693.434 235.939 679.939 235.939Z" fill="#57586E"/>
<path fill-rule="evenodd" clip-rule="evenodd" d="M680.127 227.909C659.877 227.909 643.402 211.455 643.402 191.229C643.402 171.004 659.877 154.55 680.127 154.55C681.741 154.55 683.05 155.857 683.05 157.469C683.05 159.082 681.741 160.39 680.127 160.39C663.101 160.39 649.249 174.224 649.249 191.229C649.249 208.235 663.101 222.07 680.127 222.07C697.153 222.07 711.005 208.235 711.005 191.229C711.005 187.586 710.375 184.021 709.135 180.634C708.58 179.119 709.36 177.443 710.876 176.889C712.392 176.335 714.071 177.114 714.625 178.628C716.103 182.66 716.851 186.9 716.851 191.229C716.851 211.455 700.377 227.909 680.127 227.909V227.909Z" fill="#175CFF"/>
<path fill-rule="evenodd" clip-rule="evenodd" d="M679.942 218.602C664.729 218.602 652.353 206.24 652.353 191.046C652.353 175.852 664.729 163.491 679.942 163.491C681.556 163.491 682.865 164.798 682.865 166.411C682.865 168.024 681.556 169.331 679.942 169.331C667.953 169.331 658.2 179.073 658.2 191.046C658.2 203.021 667.953 212.763 679.942 212.763C691.931 212.763 701.685 203.021 701.685 191.046C701.685 185.084 699.314 179.524 695.009 175.39C693.845 174.272 693.808 172.424 694.927 171.262C696.046 170.098 697.896 170.063 699.061 171.18C704.523 176.425 707.531 183.481 707.531 191.046C707.531 206.24 695.155 218.602 679.942 218.602V218.602Z" fill="#4A7FFE"/>
<path fill-rule="evenodd" clip-rule="evenodd" d="M587.414 323.668H630.612C632.214 323.668 633.513 325.011 633.513 326.668C633.513 328.325 632.214 329.668 630.612 329.668H587.414C585.812 329.668 584.513 328.325 584.513 326.668C584.513 325.011 585.812 323.668 587.414 323.668V323.668Z" fill="#57586E"/>
<path fill-rule="evenodd" clip-rule="evenodd" d="M587.47 333.668H627.556C629.189 333.668 630.513 335.011 630.513 336.668C630.513 338.325 629.189 339.668 627.556 339.668H587.47C585.837 339.668 584.513 338.325 584.513 336.668C584.513 335.011 585.837 333.668 587.47 333.668V333.668Z" fill="#E2E2E8"/>
<rect x="724.513" y="322.668" width="48" height="17" rx="4.5" fill="#E2E2E8"/>
<path fill-rule="evenodd" clip-rule="evenodd" d="M587.414 354.668H630.612C632.214 354.668 633.513 356.011 633.513 357.668C633.513 359.325 632.214 360.668 630.612 360.668H587.414C585.812 360.668 584.513 359.325 584.513 357.668C584.513 356.011 585.812 354.668 587.414 354.668V354.668Z" fill="#57586E"/>
<path fill-rule="evenodd" clip-rule="evenodd" d="M587.47 365.668H627.556C629.189 365.668 630.513 367.011 630.513 368.668C630.513 370.325 629.189 371.668 627.556 371.668H587.47C585.837 371.668 584.513 370.325 584.513 368.668C584.513 367.011 585.837 365.668 587.47 365.668V365.668Z" fill="#E2E2E8"/>
<rect x="724.513" y="354.668" width="48" height="16" rx="4.5" fill="#E2E2E8"/>
<path fill-rule="evenodd" clip-rule="evenodd" d="M587.415 386.668H630.612C632.215 386.668 633.514 388.011 633.514 389.668C633.514 391.325 632.215 392.668 630.612 392.668H587.415C585.813 392.668 584.514 391.325 584.514 389.668C584.514 388.011 585.813 386.668 587.415 386.668V386.668Z" fill="#57586E"/>
<path fill-rule="evenodd" clip-rule="evenodd" d="M587.471 396.668H627.557C629.19 396.668 630.514 398.011 630.514 399.668C630.514 401.325 629.19 402.668 627.557 402.668H587.471C585.838 402.668 584.514 401.325 584.514 399.668C584.514 398.011 585.838 396.668 587.471 396.668V396.668Z" fill="#E2E2E8"/>
<rect x="724.514" y="386.668" width="48" height="16" rx="4.5" fill="#E2E2E8"/>
<path fill-rule="evenodd" clip-rule="evenodd" d="M119.872 125H453.895C460.031 125 461.646 128.61 461.646 133.068C461.646 137.524 460.031 141.138 453.895 141.138H119.872C113.736 141.138 111.001 137.524 111.001 133.068C111.001 128.61 113.736 125 119.872 125Z" fill="#A5B8D0"/>
<path fill-rule="evenodd" clip-rule="evenodd" d="M117.417 174.668H268.583C272.126 174.668 275 177.354 275 180.667C275 183.982 272.126 186.668 268.583 186.668H117.417C113.874 186.668 111 183.982 111 180.667C111 177.354 113.874 174.668 117.417 174.668V174.668Z" fill="#E2E2E8"/>
<path fill-rule="evenodd" clip-rule="evenodd" d="M533.513 190.668C539.036 190.668 543.513 186.639 543.513 181.668C543.513 176.697 539.036 172.668 533.513 172.668C527.99 172.668 523.513 176.697 523.513 181.668C523.513 186.639 527.99 190.668 533.513 190.668Z" fill="#E2E2E8"/>
<path fill-rule="evenodd" clip-rule="evenodd" d="M117.438 208.668H207.562C211.117 208.668 214 211.354 214 214.669C214 217.982 211.117 220.668 207.562 220.668H117.438C113.883 220.668 111 217.982 111 214.669C111 211.354 113.883 208.668 117.438 208.668V208.668Z" fill="#E2E2E8"/>
<path fill-rule="evenodd" clip-rule="evenodd" d="M533.513 224.668C539.036 224.668 543.513 220.415 543.513 215.168C543.513 209.921 539.036 205.668 533.513 205.668C527.99 205.668 523.513 209.921 523.513 215.168C523.513 220.415 527.99 224.668 533.513 224.668Z" fill="#E2E2E8"/>
<path fill-rule="evenodd" clip-rule="evenodd" d="M117.422 240.668H241.578C245.124 240.668 248 243.353 248 246.668C248 249.981 245.124 252.668 241.578 252.668H117.422C113.876 252.668 111 249.981 111 246.668C111 243.353 113.876 240.668 117.422 240.668V240.668Z" fill="#E2E2E8"/>
<path fill-rule="evenodd" clip-rule="evenodd" d="M533.513 256.668C539.036 256.668 543.513 252.639 543.513 247.668C543.513 242.697 539.036 238.668 533.513 238.668C527.99 238.668 523.513 242.697 523.513 247.668C523.513 252.639 527.99 256.668 533.513 256.668Z" fill="#E2E2E8"/>
<path fill-rule="evenodd" clip-rule="evenodd" d="M117.414 275.668H228.586C232.128 275.668 235 278.354 235 281.669C235 284.982 232.128 287.668 228.586 287.668H117.414C113.872 287.668 111 284.982 111 281.669C111 278.354 113.872 275.668 117.414 275.668V275.668Z" fill="#E2E2E8"/>
<path fill-rule="evenodd" clip-rule="evenodd" d="M533.513 291.668C539.036 291.668 543.513 287.639 543.513 282.668C543.513 277.697 539.036 273.668 533.513 273.668C527.99 273.668 523.513 277.697 523.513 282.668C523.513 287.639 527.99 291.668 533.513 291.668Z" fill="#E2E2E8"/>
<path fill-rule="evenodd" clip-rule="evenodd" d="M112.206 534.137C112.206 534.137 326.552 533.886 408.062 442.322C480.694 360.732 541.746 342.854 541.746 342.854V564.743C541.746 569.572 537.821 573.488 532.98 573.488H120.972C116.131 573.488 112.206 569.572 112.206 564.743V534.137V534.137Z" fill="#175CFF"/>
<path fill-rule="evenodd" clip-rule="evenodd" d="M112.206 379.837C112.206 379.837 241.117 378.993 328.623 451.496C458.467 559.08 541.746 522.066 541.746 522.066V564.735C541.746 569.568 537.821 573.488 532.98 573.488H120.972C116.131 573.488 112.206 569.568 112.206 564.735V379.837Z" fill="#4A7FFE"/>
<path fill-rule="evenodd" clip-rule="evenodd" d="M112.206 498.158C112.206 498.158 216.432 479.404 311.821 516.929C416.342 558.047 541.746 538.551 541.746 538.551V564.752C541.857 573.139 541.857 573.632 532.98 573.487H120.972C112.206 573.487 112.206 573.487 112.206 564.752V498.158Z" fill="#57586E"/>
<mask id="mask0" mask-type="alpha" maskUnits="userSpaceOnUse" x="583" y="463" width="188" height="137">
<path fill-rule="evenodd" clip-rule="evenodd" d="M583.528 463.53H770.58V595.23C770.58 597.338 768.87 599.048 766.762 599.048H587.346C585.238 599.048 583.528 597.338 583.528 595.23V463.53V463.53Z" fill="white"/>
</mask>
<g mask="url(#mask0)">
<path fill-rule="evenodd" clip-rule="evenodd" d="M781.486 472.773C781.115 473.346 781.127 474.305 780.311 474.437C779.535 474.026 778.747 473.639 778.308 472.891C776.982 472.881 776.299 472.227 775.363 471.822C775.109 472.121 775.947 472.838 775.597 473.246C774.759 473.515 773.582 473.433 772.889 473.842C774.119 473.92 775.007 475.873 773.946 476.811C772.277 476.381 771.007 476.889 769.591 477.759C768.698 478.31 767.962 479.498 767.115 479.541C766.354 479.585 765.715 478.99 764.874 479.068C764.633 479.089 764.33 479.361 764.049 479.426C762.24 479.865 761.622 480.214 760.753 481.682C762.654 482.501 760.661 484.007 760.753 485.721C760.345 485.983 759.746 486.054 759.338 486.316C758.785 488.18 757.795 489.592 755.798 489.997C755.217 486.765 754.951 483.134 757.214 481.682C757.551 481.467 758.03 481.52 758.395 481.327C759.026 480.993 759.492 480.071 760.274 479.307C761.202 478.41 762.494 477.921 762.043 476.574C761.038 476.316 761.338 477.366 761.1 477.88C760.961 478.263 760.642 478.451 760.271 478.83C758.556 480.604 760.247 478.585 760.982 477.525C760.553 477.681 759.839 478.824 758.621 478.239C758.54 477.784 759.1 477.662 758.738 477.285C756.497 477.404 755.066 478.335 754.732 480.373C752.714 481.439 750.806 479.282 749.076 480.373C748.822 480.744 748.958 481.523 748.371 481.561C748.405 481.124 748.834 481.081 748.72 480.492C747.085 480.682 745.688 480.355 744.596 480.85C743.712 481.252 742.961 482.651 742.241 483.343C741.258 484.278 740.229 484.708 739.648 485.717C740.328 485.83 740.637 486.304 741.175 486.553C742.59 485.92 744.108 486.522 744.244 487.741C744.303 488.31 743.789 489.077 743.651 489.638C743.502 490.258 743.616 491.031 743.298 491.897C742.958 492.826 741.839 494.34 741.06 495.46C740.17 496.737 739.008 497.915 737.997 498.193C736.773 498.526 735.978 498.283 735.403 499.025C735.1 499.42 735.326 500.103 734.816 500.449C734.247 500.514 733.898 500.791 733.401 500.925C733.799 502.39 735.113 502.923 734.816 505.08C734.315 505.69 733.722 506.195 732.578 506.151C732.547 506.058 732.479 506.014 732.343 506.033C731.821 505.332 732.291 504.154 732.343 503.303C731.926 503.047 731.098 503.213 730.81 502.829C730.563 502.275 731.376 501.47 730.693 501.047C729.91 501.923 729.017 502.683 728.807 504.135C728.105 504.574 727.073 504.684 726.807 505.563C727.811 506.285 727.799 508.065 728.105 509.365C728.226 509.894 728.76 510.514 728.689 511.025C728.631 511.434 728.065 511.72 727.626 512.212C726.962 512.976 726.226 514.634 725.747 515.183C725.054 515.971 724.062 515.971 722.918 516.37C721.187 516.977 719.558 517.423 717.264 517.32C717.098 517.978 715.877 518.844 715.967 519.817C716.056 520.81 718.047 521.447 718.439 522.549C719.089 524.354 718.146 525.787 717.141 526.706C716.483 527.308 715.809 527.704 715.02 528.252C714.149 526.32 713.175 524.488 710.897 523.973C710.888 525.52 710.613 527.486 711.246 529.081C712.477 529.355 713.175 530.151 713.961 530.864C713.194 531.939 714.653 532.544 714.547 533.716C713.135 534.052 711.611 532.232 711.012 530.627C710.928 530.403 711.036 530.007 710.894 529.676C710.514 528.788 709.655 528.611 709.596 527.897C709.54 527.153 710.322 525.055 710.421 524.572C709.994 523.849 709.265 521.238 708.421 521.244C707.849 521.25 707.905 522.603 706.891 522.431C706.508 521.555 706.162 520.636 706.303 519.231C705.021 518.246 703.93 516.557 702.063 516.852C701.451 516.949 701.055 517.785 700.526 518.277C698.91 519.817 696.273 521.234 695.225 523.03C696.205 525.55 694.465 527.698 692.4 528.258C691.198 525.014 688.477 521.599 689.454 517.327C688.579 517.43 687.204 518.343 686.622 517.327C686.734 516.915 687.333 516.525 687.095 516.139C686.53 515.825 685.72 516.033 685.21 515.902C684.697 515.392 684.746 514.31 684.029 514.002C681.705 514.606 679.831 514.054 677.315 514.002C676.984 513.659 676.932 513.038 676.607 512.696C674.935 513.54 672.181 513.078 672.131 510.913C671.609 509.978 669.491 509.209 669.065 510.795C669.995 510.813 670.091 511.661 670.36 512.34C671.047 512.561 671.606 512.908 671.894 513.528C671.683 513.87 671.705 513.902 671.779 514.36C673.022 516.441 675.309 514.338 676.487 513.291C676.7 513.515 676.573 514.076 676.607 514.478C677.399 515.145 678.595 515.407 679.198 516.264C678.737 517.102 677.936 517.598 678.023 518.991C676.619 519.477 675.986 520.745 674.839 521.487C674.326 521.406 674.178 521.692 673.658 521.608C672.456 523.042 667.238 525.529 665.411 524.22C665.22 523.543 665.529 522.578 665.411 521.608C664.864 520.696 664.169 519.932 663.763 518.876C662.348 518.439 662.419 517.124 661.764 515.787C660.963 514.16 659.742 512.864 659.167 511.274C660.333 510.152 658.83 506.865 660.231 506.164C659.816 505.572 660.144 504.462 660.113 504.026C658.422 503.935 656.889 504.201 655.164 504.385C653.235 503.793 651.903 502.599 651.98 499.988C651.306 500.177 650.738 500.476 649.742 500.343C649.248 501.683 650.765 503.767 648.914 504.381C648.308 502.241 645.854 501.402 646.323 498.56C644.265 497.984 643.606 495.998 641.61 495.353C641.412 498.485 644.401 499.423 646.441 500.698C645.915 501.009 645.158 500.682 644.673 500.577C644.883 502.824 643.483 502.714 643.143 504.381C642.849 503.487 641.613 503.543 641.14 502.835C641.294 501.536 643.344 502.848 643.968 502.122C643.699 501.879 643.56 501.505 643.616 500.935C642.633 499.862 641.053 499.401 639.962 498.438C639.879 497.338 639.161 496.871 638.076 496.778C637.016 498.226 635.322 497.581 633.832 497.728C633.925 499.716 631.891 499.57 631.36 500.935C631.418 501.352 631.539 501.704 631.477 502.241C630.667 503.238 629.56 504.325 627.706 503.901C627.372 504.356 626.936 504.712 626.88 505.45C629.366 506.915 630.494 504.559 632.775 504.259C635.026 503.97 637.05 503.951 639.023 504.141C638.92 505.235 639.724 506.018 639.372 507.348C640.33 508.582 643.594 507.13 643.73 509.367C644.967 509.271 645.174 510.212 645.975 510.552C646.135 510.122 646.571 509.965 646.92 509.722C646.951 509.143 646.657 508.769 646.92 508.296C648.54 507.491 649.427 508.56 650.453 508.887C650.929 509.041 651.64 508.94 652.222 509.124C652.806 509.314 653.152 509.711 653.517 509.72C654.033 509.726 654.781 509.153 655.519 509.124C657.631 509.043 659.656 510.015 658.231 512.334C657.959 512.372 657.776 512.313 657.637 512.212C658.601 513.472 658.716 515.192 659.408 516.609C659.693 517.192 660.19 517.644 660.471 518.156C660.821 518.81 660.759 519.42 661.059 520.172C661.161 520.443 661.594 520.761 661.767 521.125C661.955 521.54 661.952 522.045 662.116 522.313C663.01 523.743 665.173 524.079 665.297 525.996C666.944 527.501 670.033 525.731 671.662 525.759C670.929 529.564 669.513 532.179 667.065 534.192C666.447 534.706 665.6 534.993 665.065 535.619C664.082 536.775 663.569 538.224 662.472 539.303C663.006 540.783 662.577 542.338 662.824 543.819C663.043 545.118 663.646 546.006 663.418 547.262C662.911 549.964 659.718 550.244 658.583 552.488C659.872 553.691 658.79 556.63 657.17 556.763C657.152 557.339 657.674 557.359 657.526 558.069C655.69 560.98 653.952 563.776 650.101 564.242C649.1 564.367 647 564.769 646.209 564.601C645.087 564.364 645.384 563.382 645.032 561.989C644.565 560.129 642.633 558.471 642.086 555.813C641.962 555.205 642.11 554.529 641.971 553.912C641.638 552.478 640.302 551.316 640.086 549.991C639.77 548.075 640.809 545.978 641.616 544.766C640.747 543.626 641.588 540.755 640.086 540.25C640.228 538.231 637.733 537.666 637.727 535.738C637.727 534.591 638.831 533.946 638.435 532.294C637.708 531.883 636.531 531.92 635.489 531.817C634.859 531.069 634.234 530.318 633.016 530.156C630.924 531.381 626.729 532.182 623.706 531.584C622.432 531.332 620.652 528.451 619.465 526.713C618.469 525.261 616.94 524.74 617.459 522.201C618.046 521.474 617.687 520.131 617.576 519.112C615.978 517.912 617.823 516.488 618.636 515.192C619.347 514.06 619.595 512.867 620.29 512.34C621.412 512.007 622.327 511.465 622.998 510.676C622.757 510.443 622.646 510.078 622.646 509.605C623.023 508.479 623.542 507.498 624.769 507.23C625.156 506.273 625.647 505.426 626.534 504.97C626.138 504.538 625.87 503.98 625.474 503.546C624.982 503.771 624.306 503.562 623.827 503.425C623.823 502.599 623.341 502.368 623.471 501.642C623.573 501.097 624.204 500.866 624.296 500.336C624.46 499.42 623.891 498.601 623.827 497.485C625.236 496.454 627.288 497.731 629.48 497.363C630.253 496.672 630.139 494.736 629.48 493.92C628.457 493.714 626.973 493.377 627.48 492.019C628.918 492.642 629.431 491.897 630.308 491.542C630.976 491.277 631.69 491.377 632.194 490.95C632.373 489.385 633.694 489.136 634.788 488.098C635.316 487.597 635.696 486.837 636.2 486.671C636.986 486.422 638.089 487.017 638.327 485.839C637.848 485.135 637.335 484.459 637.378 483.228C638.036 482.857 638.324 482.119 639.264 482.037C639.325 483.281 640.228 483.683 640.793 484.415C640.543 485.232 639.344 485.088 639.264 486.076C640.175 487.142 641.554 485.387 642.679 486.553C643.331 486.516 643.69 485.864 644.45 485.717C645.442 485.531 646.679 486.079 647.396 485.362C647.745 483.81 648.209 482.38 649.517 481.797C649.467 482.514 649.539 483.119 649.869 483.458C650.481 483.399 650.317 482.564 650.577 482.152C650.299 481.561 649.702 481.286 649.752 480.37C650.645 479.981 652.463 479.815 653.285 480.37C653.687 479.644 655.677 479.235 654.583 478.111C654.379 478.504 654.357 479.074 653.875 479.179C653.331 479.096 652.976 478.824 652.58 478.587C651.452 478.999 650.664 479.747 648.923 479.538C648.289 478.715 648.682 476.852 648.336 475.739C648.985 474.284 650.963 474.078 651.161 472.292C650.221 472.249 649.628 472.567 648.809 472.648C648.525 473.318 648.095 473.829 647.981 474.667C646.463 475.553 645.025 476.518 644.8 478.706C645.804 478.84 646.383 479.41 646.212 480.726C644.595 481.14 644.778 482.679 644.092 483.932C642.957 483.932 642.658 484.786 641.616 484.882C640.657 483.627 640.528 481.542 639.495 480.367C638.71 481.635 635.829 482.77 635.016 480.726C635.183 480.542 635.489 480.488 635.369 480.011C633.999 476.014 637.749 475.452 639.492 473.839C639.644 472.857 640.67 472.663 641.14 471.937C641.294 471.704 641.23 471.249 641.378 470.987C641.761 470.295 642.472 470.046 642.908 469.323C642.249 469.314 641.631 469.264 641.378 468.849C642.144 468.516 642.936 467.967 643.848 467.659C644.212 467.54 644.565 467.662 644.911 467.54C645.393 467.373 645.668 466.808 646.206 466.59C646.704 466.39 647.334 466.565 647.857 466.353C648.496 466.088 648.685 465.34 649.393 465.281C650.326 465.618 650.664 464.679 651.628 464.689C652.153 464.595 651.86 465.324 652.339 465.281C653.368 464.617 654.818 465.293 655.751 465.758C655.745 466.119 655.322 466.375 655.637 466.705C656.348 466.677 657.516 467.067 657.993 467.656C659.482 467.079 660.184 467.946 661.059 468.248C661.535 468.419 662.156 468.329 662.468 468.488C663.297 468.909 663.959 469.962 664.236 470.625C662.738 473.081 659.513 471.317 657.284 470.625C657.968 471.828 659.606 471.891 659.167 473.954C659.804 474.222 660.32 474.617 661.291 474.546C661.377 474.194 659.992 473.754 660.583 472.885C661.699 472.906 662.295 473.963 663.414 473.599C663.319 472.982 662.852 472.739 662.821 472.053C664.438 472.096 664.777 470.697 666.475 471.46C666.567 470.021 665.906 469.338 665.652 468.251C666.289 468.332 667.621 468.603 668.357 468.965C668.332 469.684 667.909 470.108 667.414 470.033C667.652 470.953 668.567 470.865 669.417 470.625C669.495 470.155 668.957 469.937 669.303 469.557C671.229 469.314 672.61 467.908 674.49 468.014C674.515 468.481 674.063 468.457 674.137 468.965C675.324 468.425 676.508 467.874 678.141 467.777C678.65 467.858 678.496 468.606 679.2 468.491C679.383 468.201 679.377 467.718 679.436 467.303C678.95 466.824 677.59 466.655 677.788 465.877C678.57 465.452 679.278 466.166 680.147 466.468C681.074 466.789 682.14 466.764 683.089 467.06C684.242 467.418 684.938 468.538 685.921 468.721C686.109 467.503 684.966 467.624 684.737 466.82C684.944 465.826 684.332 465.652 684.27 464.923C685.139 463.934 686.242 463.187 686.863 461.953C687.958 462.115 689.324 462.006 689.689 462.9C689.445 463.523 688.814 463.76 688.628 464.446C689.698 464.982 689.126 466.861 689.337 468.011C689.426 468.478 689.745 468.634 689.689 469.08C689.51 470.588 687.828 470.862 686.746 471.455C689.627 471.9 690.517 470.345 690.752 468.126C691.982 467.92 692.6 468.323 692.996 468.958C693.97 466.593 690.143 468.559 689.812 467.058C689.683 466.478 690.347 466.188 690.403 465.511C689.766 464.633 689.485 463 690.987 462.897C691.062 462.576 690.839 461.956 691.104 461.828C692.19 462.342 691.327 463.514 691.104 464.324C691.735 464.577 692.495 465.06 693.228 464.561C692.919 464.196 691.982 464.467 691.93 463.848C691.998 463.396 692.097 462.984 692.752 463.134C692.656 462.601 692.965 462.473 693.349 462.42C694.158 463.081 695.871 464.421 697.117 463.489C696.208 463.224 695.281 463.234 695.111 462.42C694.737 460.497 697.676 460.111 699.825 460.519C700.026 459.665 700.817 458.35 701.827 458.023C702.09 457.939 702.517 458.061 702.891 458.023C704.01 457.924 705.5 457.312 706.665 457.191C707.447 457.113 708.288 457.325 709.018 457.191C710.087 457.001 710.897 456.215 711.849 456.362C712.044 456.166 711.942 455.664 711.966 455.293C712.789 454.645 714.168 453.963 715.617 454.343C715.71 454.804 715.741 454.96 715.5 455.293C716.266 455.277 716.282 456.016 716.798 456.244C718.9 455.583 722.47 455.682 722.334 457.789C722.297 458.341 721.645 458.802 721.156 459.095C719.605 460.033 716.678 460.541 715.973 461.828C717.271 461.158 719.234 461.158 719.979 459.928C720.238 460.18 719.827 460.279 719.865 460.641C721.592 460.99 723.469 460.6 725.28 460.996C726.284 461.214 726.813 462.115 727.635 462.184C728.693 462.274 729.611 461.725 729.994 460.637C731.354 460.697 732.476 460.987 733.768 461.114C734.507 462.149 733.694 464.757 735.063 465.15C735.233 465.278 736.089 465.081 736.362 464.913C736.838 463.536 735.413 462.697 735.771 461.467C736.04 462.143 736.191 462.947 736.479 463.608C736.822 463.941 736.711 463.14 737.187 463.249C737.892 465.053 740.334 463.745 742.371 464.199C742.621 463.86 742.374 463.015 742.609 462.654C744.077 461.987 746.93 463.286 747.792 462.062C747.966 462.439 747.252 462.769 747.792 462.775C749.103 462.919 750.674 462.797 750.856 464.078C751.824 464.141 752.516 464.948 753.449 465.032C754.667 465.144 755.662 464.639 756.748 464.795C757.307 464.876 758.114 465.209 758.513 465.508C759.585 466.313 759.468 467.656 760.874 466.815C761.159 466.642 760.284 466.244 760.636 465.983C761.366 467.612 764.092 466.331 765.937 466.574C766.314 467.279 766.741 468.16 767.823 467.524C767.879 466.876 766.92 466.748 767.353 466.098C772.206 466.237 776.518 467.946 779.613 470.258C779.64 470.576 779.118 470.934 779.489 471.205C779.798 471.003 779.566 470.261 779.962 470.136C781.353 470.517 782.493 471.146 783.492 471.94C783.492 472.056 783.492 472.174 783.492 472.296C782.815 472.445 782.141 472.598 781.486 472.773V472.773ZM773.834 464.911C774.3 463.786 776.217 463.848 777.37 464.319C777.314 465.556 774.6 465.515 773.834 464.911V464.911ZM747.913 458.974C747.928 457.758 751.115 458.266 751.567 458.852C751.18 459.722 748.515 459.404 747.913 458.974V458.974ZM746.028 461.345C745.345 461.775 743.682 461.616 742.962 461.345C743.058 460.13 745.908 460.223 746.028 461.345V461.345ZM740.722 458.852C740.434 455.951 743.176 458.08 744.137 457.07C744.894 457.831 746.094 457.126 747.086 457.547C747.148 458.042 747.024 458.351 746.851 458.615C744.765 458.609 742.644 459.613 740.722 458.852V458.852ZM710.558 453.863C710.58 452.863 712.583 452.707 711.974 451.843C712.923 451.052 715.056 451.785 715.507 452.913C714.311 453.614 711.934 454.106 710.558 453.863V453.863ZM710.794 453.028C709.051 453.066 707.372 452.056 705.96 451.366C705.889 451.08 705.79 450.824 705.842 450.416C705.515 450.56 705.033 450.547 704.544 450.538C704.353 450.176 704.019 449.955 704.074 449.35C705.623 448.795 707.051 447.602 709.137 448.278C709.372 449.142 708.992 449.288 708.782 449.942C709.094 450.5 710.222 450.232 711.026 450.297C711.094 450.902 710.637 451.946 710.794 453.028V453.028ZM618.289 448.871C618.27 450.011 616.793 450.463 615.581 450.772C615.497 451.211 615.782 451.282 615.699 451.722C615.08 452.32 614.301 452.766 614.051 453.741C614.981 453.754 615.528 454.15 615.699 454.928C616.298 454.841 616.595 455.056 616.879 455.284C616.944 455.867 616.693 456.125 616.409 456.353C616.004 456.4 615.427 455.225 614.524 455.761C614.27 457.045 615.405 456.93 615.819 457.543C615.701 458.93 615.124 459.85 614.759 460.987C614.258 461.118 613.745 461.233 613.464 461.582C613.807 462.227 613.46 462.504 613.108 463.009C613.887 464.78 612.026 464.82 611.457 465.624C611.457 465.742 611.556 465.765 611.578 465.861C612.144 466.147 613.284 465.578 613.816 466.098C611.321 467.5 608.935 469.015 605.213 469.186C604.301 469.834 604.199 471.124 603.21 471.8C601.977 472.645 599.89 472.049 598.849 473.346C599.142 475.347 598.005 475.898 597.198 476.793C597.318 477.431 597.661 477.553 597.554 478.22C597.167 480.508 594.104 478.307 592.487 478.457C591.652 476.556 589.448 474.259 588.716 472.28C588.289 471.137 587.656 470.043 588.716 468.837C589.127 468.777 589.483 468.659 590.011 468.715C590.224 468.251 590.163 467.176 590.011 466.696C589.39 466.705 589.387 467.335 588.833 467.409C588.209 467.366 587.912 466.992 587.418 466.815C587.872 466.294 587.594 466.484 587.3 465.983C587.279 465.565 587.699 465.592 587.77 465.268C588.608 465.817 589.377 465.428 590.126 465.032C589.538 464.636 589.152 464.035 588.595 463.604C588.342 464.334 586.855 464.836 586.354 463.959C586.401 462.86 586.905 462.601 586.71 461.464C586.586 460.756 584.432 458.086 583.999 457.783C581.375 455.926 576.182 458.335 574.571 455.524C574.593 455.028 575.183 455.109 575.396 454.813C574.76 454.265 573.381 454.465 572.923 453.741C574.305 452.012 577.075 452.196 579.05 451.245C578.979 450.8 578.605 450.662 578.58 450.176C578.079 450.086 577.183 450.394 577.047 449.94C577.035 449.273 577.863 449.385 578.228 449.226C579.678 448.593 581.245 447.948 582.469 447.328C582.695 447.2 582.632 446.78 582.824 446.614C584.688 446.587 586.735 445.221 588.599 445.545C589.365 445.679 589.82 446.589 590.719 446.378C590.874 446.134 589.922 445.997 590.129 445.309C591.705 444.879 593.074 445.655 594.135 446.137C594.249 445.9 593.439 445.576 593.309 445.19C593.433 444.791 593.665 445.178 594.017 444.95C593.99 444.582 593.687 444.489 593.544 444.237C595.832 443.657 600.61 444.654 602.264 443.049C602.5 443.049 602.734 443.049 602.972 443.049C605.065 443.523 606.963 442.825 608.864 443.168C610.443 443.454 611.705 444.879 613.105 445.069C613.065 445.586 612.453 445.523 612.162 445.782C612.697 446.116 613.414 446.265 613.93 446.614C613.321 447.266 612.826 448.032 612.28 448.752C613.241 448.572 614.477 447.639 615.346 446.969C615.652 447.097 615.924 447.259 616.406 447.207C617.182 446.296 620.187 446.178 621.235 446.969C620.87 448.226 619.513 448.481 618.289 448.871V448.871ZM559.498 455.169C558.877 455.241 558.604 454.96 557.965 455.05C557.97 454.044 559.934 454.281 559.498 455.169V455.169ZM576.7 447.21C577.273 447.989 579.022 447.39 579.881 447.331C578.71 448.602 576.385 448.715 575.167 449.943C574.735 449.943 574.305 449.943 573.872 449.943C573.894 450.351 574.747 449.931 574.697 450.417C573.477 451.644 570.321 450.419 569.279 451.959C569.937 451.336 570.583 451.42 571.869 451.485C571.767 452.373 571.393 452.985 570.339 452.913C570.018 453.233 570.642 453.206 570.574 453.624C570.03 453.903 569.684 454.393 568.688 454.218C568.376 454.393 569.121 454.486 568.926 454.932C568.692 455.094 568.249 455.047 567.981 455.169C568.234 455.424 568.667 455.505 569.041 455.642C568.589 456.55 566.75 457.229 565.739 456.474C563.541 457.216 561.226 456.453 559.257 456.83C560.933 459.27 564.8 456.577 567.39 457.899C567.498 458.759 567.239 459.251 567.038 459.8C566.039 459.635 565.013 460.232 564.679 459.445C563.653 459.647 561.43 460.227 560.559 459.445C559.557 459.918 558.398 459.401 557.495 459.086C557.755 457.837 557.27 457.244 556.549 456.712C555.183 456.705 553.56 456.955 553.721 455.406C554.723 454.922 556.404 456.035 558.317 455.883C559.634 455.774 560.479 455.387 561.616 455.05C561.529 454.664 560.855 454.866 560.791 454.455C561.035 453.221 563.06 454.829 563.146 453.741C562.695 453.654 561.789 453.804 561.261 453.505C561.199 452.729 561.876 452.697 561.968 452.081C560.862 452.639 560.281 453.882 558.787 453.741C557.835 453.654 557.097 452.9 556.194 452.673C556.194 452.476 556.194 452.277 556.194 452.081C556.194 451.688 556.528 451.625 556.902 451.604C556.525 451.27 555.774 451.576 555.607 451.843C554.698 451.725 554.519 450.881 554.073 450.302C554.704 449.229 555.257 447.954 556.432 447.805C558.145 447.59 558.985 449.884 560.911 449.591C561.236 450.133 561.594 450.641 562.206 450.896C562.614 450.491 561.699 450.208 562.086 449.828C563.619 449.388 565.152 450.043 566.33 449.351C565.115 449.099 564.141 449.058 562.676 449.351C562.407 449.226 562.349 448.887 562.086 448.755C559.761 449.341 559.381 447.512 557.61 447.21C558.395 445.627 561.962 446.848 563.029 445.546C565.814 446.157 566.927 443.878 569.276 444.832C569.956 444.022 571.427 443.987 572.222 444.713C573.241 443.517 575.996 444.722 577.758 444.477C577.847 444.879 577.325 444.67 577.288 444.951C579.334 444.29 580.849 444.963 582.237 445.782C581.322 447.132 578.568 447.216 576.7 447.21V447.21ZM556.903 454.34C556.64 455.069 554.822 454.857 554.071 454.692C554.266 453.86 556.427 454.153 556.903 454.34V454.34ZM555.369 453.505C555.24 454.243 554.003 453.869 553.484 454.215C553.014 453.779 552.634 453.252 552.421 452.554C553.323 452.174 554.915 452.694 555.369 453.505V453.505ZM550.89 450.775C550.769 449.232 552.97 450.413 552.067 451.249C551.697 451.071 551.36 450.853 550.89 450.775V450.775ZM551.719 454.34C550.469 453.854 549.477 453.112 547.478 453.39C547.422 453.047 547.06 453.019 547.125 452.558C547.4 452.517 547.567 452.367 547.947 452.439C547.585 452.09 546.832 452.137 546.535 451.725C547.953 450.569 550.157 452.32 551.601 452.675C551.851 453.324 552.238 453.766 551.719 454.34V454.34ZM547.239 457.428C547.174 457.902 547.174 457.787 547.239 458.257C546.714 458.64 546.058 458.887 545.471 459.207C543.394 458.357 542.216 460.105 539.935 459.803C539.768 459.429 539.437 459.089 539.7 458.615C538.791 458.678 537.505 458.989 537.106 458.257C537.02 457.736 537.489 457.771 537.576 457.428C536.726 458.111 535.657 457.338 534.751 457.783C534.55 457.671 534.491 457.412 534.396 457.189C534.04 457.322 533.202 457.416 532.865 457.189C532.862 456.911 533.066 456.839 532.983 456.478C535.001 456.49 535.075 454.546 537.458 454.932C537.542 454.278 538.401 454.823 538.519 454.692C538.865 455.325 538.501 456.26 538.049 456.478C537.447 456.574 537.125 456.381 536.872 456.119C536.6 456.356 536.204 456.478 536.284 457.07C538.12 456.58 541.304 455.907 542.646 457.902C543.066 457.733 543.706 457.78 543.941 457.428C543.678 457.138 543.171 457.092 542.763 456.951C542.726 456.519 542.896 456.291 542.998 456.001C543.746 456.082 544.133 455.799 544.884 455.883C544.636 456.4 544.813 457.11 545.119 457.428C545.854 457.503 546.621 457.088 547.239 457.428V457.428ZM540.402 453.268C540.813 452.335 542.297 452.486 543.465 452.32C543.768 452.563 543.898 452.99 543.821 453.623C543.088 453.096 541.338 453.592 540.402 453.268V453.268ZM540.765 453.988C541.565 453.764 542.947 453.268 543.711 453.748C543.482 453.913 543.198 454.025 542.882 454.103C542.92 454.384 543.439 454.175 543.355 454.577C542.483 455.156 540.657 455.748 540.292 454.34C539.704 454.318 539.59 454.515 539.231 454.225C539.136 453.287 540.475 453.651 540.765 453.988V453.988ZM535.808 460.158C536.225 460.198 536.695 459.865 537.103 459.921C537.789 460.018 538.655 460.535 538.871 461.226C537.205 462.046 535.152 462.47 534.513 464.318C533.82 464.411 533.437 464.813 532.744 464.91C531.901 464.415 531.647 463.327 530.268 463.368C531.279 462.495 532.299 461.003 531.329 459.447C532.126 459.385 534.046 459.363 534.979 459.684C535.307 459.796 535.53 460.133 535.808 460.158V460.158ZM554.076 462.299C554.383 462.96 554.067 463.707 553.724 464.078C552.985 463.851 552.756 464.222 552.073 464.318C551.47 463.3 549.866 463.293 549.01 462.536C549.096 462.265 549.115 461.928 549.245 461.704C549.832 461.707 550.305 462.321 550.893 461.941C550.951 461.327 550.222 461.51 549.95 461.227C550.333 460.255 553.331 459.812 553.721 460.99C553.838 461.586 553.195 461.411 553.133 461.822C553.239 462.187 553.872 462.028 554.076 462.299V462.299ZM556.668 458.021C556.78 458.768 556.489 459.111 556.195 459.448C555.404 458.975 554.798 459.85 554.195 459.567C553.883 459.208 554.031 458.921 554.078 458.379C552.798 458.024 552.276 459.663 550.776 458.852C550.492 458.616 550.974 458.289 550.659 458.021C549.469 457.728 548.501 459.329 548.066 458.021C548.443 458.12 548.514 457.918 548.656 457.783C548.424 457.089 547.333 456.687 547.596 455.883C548.628 455.911 548.613 456.765 549.478 456.715C549.979 456.687 550.056 456.11 550.656 456.001C551.404 455.867 552.028 456.341 552.894 456.478C553.02 456.783 553.185 457.061 553.132 457.547C553.852 458.164 555.938 457.413 556.668 458.021V458.021ZM531.576 466.343C532.049 466.425 531.817 467.213 532.404 467.176C533.471 465.755 533.882 466.761 535.112 467.294C536.478 467.883 538.055 467.809 539.709 467.886C539.863 468.245 540.089 468.534 540.061 469.077C540.033 469.485 539.297 469.176 539.353 469.669C540.713 469.454 542.515 469.688 543.715 469.314C544.376 469.445 544.534 470.7 545.13 470.501C544.49 469.837 544.914 469.488 544.422 468.718C544.846 468.149 546.197 468.036 546.781 468.008C546.404 467.952 546.364 467.553 545.956 467.531C544.478 468.232 542.451 468.837 540.299 468.482C540.438 466.64 537.313 468.068 537.467 466.581C537.603 465.331 540.126 466.394 541.359 465.87C540.03 465.247 537.73 466.3 536.763 465.275C536.633 464.748 537.282 464.649 536.997 464.327C534.12 463.302 538.732 461.42 540.296 461.473C540.395 462.009 540.021 462.065 539.944 462.423C540.599 461.928 542.28 461.567 542.299 462.897C542.735 462.666 543.053 462.308 543.124 461.71C544.172 461.878 544.271 463.006 545.007 463.493C545.003 463.234 544.392 462.012 544.654 461.473C545.322 461.41 545.402 461.41 546.07 461.473C546.107 461.186 545.557 460.9 545.953 460.641C547.736 460.398 548.082 461.85 547.013 462.657C547.804 463.324 547.687 464.911 548.426 465.63C549.211 465.87 550.509 465.587 550.549 466.577C550.478 467.061 549.739 466.871 549.371 467.054C549.099 467.413 549.751 467.64 549.606 468.242C548.929 468.912 547.492 468.014 546.895 468.242C548.123 469.676 549.761 469.494 552.082 469.548C552.398 469.27 552.636 468.914 552.79 468.478C552.274 468.326 551.52 468.413 551.257 468.005C551.618 467.22 552.747 467.211 553.143 466.459C553.718 466.948 554.45 467.276 555.142 467.647C554.979 468.154 554.555 468.401 553.968 468.478C554.19 468.784 554.138 469.66 554.438 470.139C555.031 470.108 554.858 469.301 555.028 468.837C555.637 468.497 556.342 468.17 555.971 467.173C555.269 466.615 553.952 466.671 553.498 465.867C553.365 464.596 554.799 464.387 555.031 463.608C555.285 462.748 554.435 462.418 554.206 461.348C554.737 459.84 557.993 459.684 559.155 460.753C558.679 461.635 557.835 462.601 556.562 462.302C556.323 462.614 556.159 463.003 555.974 463.371C556.725 464.315 557.884 464.854 557.625 466.815C558.401 466.982 558.815 467.513 558.802 468.478C559.356 467.597 560.756 467.369 561.158 468.597C560.944 468.974 560.611 469.233 560.685 469.906C562.113 470.457 562.626 468.288 562.809 466.815C562.326 465.714 560.249 466.226 559.742 465.151C559.949 464.923 560.71 465.253 560.685 464.795C558.104 465.281 559.288 461.564 560.567 460.875C561.461 460.392 562.793 460.476 563.631 460.753C562.169 461.236 561.294 462.866 562.805 463.963C563.17 463.006 563.217 462.742 563.04 461.588C564.512 460.277 568.196 460.84 570.11 461.467C569.739 461.61 570.094 461.9 569.992 462.418C570.267 462.418 570.543 462.418 570.817 462.418C571.405 463.763 573.164 463.932 574.706 464.318C575.068 464.783 575.377 465.306 575.649 465.864C576.579 465.578 577.519 466.147 578.004 466.693C577.776 467.453 576.827 467.488 576.357 468.001C576.737 468.821 577.5 468.993 578.477 468.952C579.278 470.124 581.67 469.69 582.363 470.972C581.609 471.714 580.879 472.486 580.128 473.228C578.966 472.807 578.731 470.847 576.944 471.448C576.997 473.271 579.68 473.428 579.652 475.727C579.064 475.605 579.241 476.257 578.83 476.32C577.772 476.22 577.269 474.976 576.588 474.892C576.96 476.061 578.094 476.46 578.592 477.504C577.176 477.653 576.209 476.35 574.468 476.435C573.658 475.958 573.133 474.593 571.995 474.297C570.895 474.006 569.5 474.748 568.576 473.938C568.552 472.405 570.83 473.2 571.643 472.514C572.103 471.9 570.966 472.059 571.052 471.445C572.975 471.698 573.408 469.152 572.113 468.833C570.793 468.507 570.987 469.928 570.227 470.495C570.069 470.261 569.408 470.533 569.405 470.137C569.42 469.519 569.627 469.096 569.875 468.709C570.301 468.706 570.805 468.778 570.935 468.473C570.694 467.998 569.974 468.014 569.522 467.758C569.479 467.316 570.002 467.447 569.875 466.926C568.747 467.151 568.654 466.338 567.989 466.095C568.011 466.471 567.992 466.811 567.754 466.926C567.331 466.683 566.626 466.631 565.986 466.334C565.176 467.216 566.842 468.448 565.748 468.946C565.863 469.548 566.351 469.766 566.338 470.492C565.532 471.738 564.212 471.059 562.567 471.323C562.475 472.025 561.931 472.265 561.39 472.511C561.074 472.86 561.826 472.86 561.624 473.459C561.136 474.524 559.649 474.777 558.675 475.004C558.499 475.194 558.777 475.603 558.675 476.073C556.963 476.918 555.356 477.871 555.495 480.585C556.36 481.1 557.164 481.676 557.263 482.963C557.739 483.128 558.373 482.53 559.263 482.723C560.397 483.318 561.337 484.577 562.92 484.864C563.782 485.02 564.904 484.612 565.627 485.338C565.121 486.909 565.776 489.062 567.043 489.137C568.978 489.258 567.983 486.666 567.513 485.338C567.983 484.979 569.012 485.185 569.399 484.746C570.465 482.941 569.148 481.866 568.103 480.944C569.247 479.991 569.219 478.516 568.573 477.024C568.926 476.126 569.59 476.581 570.345 476.665C571.043 476.746 571.893 476.544 572.344 476.665C573.658 477.029 574.799 478.448 575.763 478.688C575.596 479.033 575.448 479.398 575.525 479.993C575.862 480.533 576.406 480.85 576.706 481.421C577.154 481.324 577.609 481.224 578.119 481.184C578.539 480.498 578.66 479.51 579.652 479.404C580.385 480.86 582.149 482.218 581.893 483.916C582.289 484.468 583.096 484.609 583.426 485.222C584.251 485.144 584.638 485.503 585.194 485.697C584.771 486.273 585.321 486.07 585.429 486.647C585.729 486.952 586.279 486.397 586.489 486.887C586.502 487.715 586.684 488.04 586.842 488.906C585.018 488.813 584.165 490.339 582.953 490.567C581.469 490.845 580.007 490.143 578.004 490.449C577.337 491.95 574.923 491.695 574.823 493.774C575.902 492.674 577.729 491.093 579.89 491.873C579.513 492.917 578.205 493.025 577.182 493.418C576.855 494.419 577.909 495.434 577.652 496.388C576.845 496.88 575.494 496.821 574.823 497.457C574.734 498.174 575.161 498.884 574.823 499.473C571.884 499.087 572.128 501.904 570.462 502.802C570.039 502.799 570.382 501.633 569.872 502.088C569.529 503.175 570.447 503.531 570.7 504.817C569.275 506.117 567.563 507.124 566.221 508.501C565.763 510.823 568.623 512.873 566.456 514.322C565.158 513.413 565.145 511.203 564.097 510.044C562.762 510.626 562.116 509.234 560.209 509.689C559.488 511.405 557.622 509.954 555.965 510.28C554.778 510.518 554.342 511.477 553.371 511.945C553.396 512.516 553.557 512.952 553.609 513.49C552.404 515.26 553.476 517.984 554.435 519.312C555.578 519.951 557 519.679 558.206 519.196C558.595 518.835 558.509 517.993 558.793 517.535C559.529 517.286 561.056 516.7 561.856 517.293C561.442 518.258 561.365 519.567 560.676 520.262C560.787 521.047 560.552 521.478 560.323 521.926C561.597 522.135 563.761 521.562 564.567 522.518C564.094 524.927 564.06 527.084 566.101 527.747C567.099 526.993 569.034 527.059 569.868 527.985C570.49 527.514 570.406 526.46 571.046 525.965C571.491 525.626 572.128 525.831 572.697 525.61C573.426 525.327 573.998 524.373 574.7 524.896C574.119 525.261 573.117 526.931 574.109 527.392C574.592 527.015 573.788 526.463 574.23 525.853C575.46 524.56 576.19 525.912 577.176 526.205C577.933 526.429 578.647 526.078 579.296 526.557C579.779 526.158 580.539 525.597 581.417 525.968C581.42 526.249 581.213 526.321 581.3 526.681C581.667 526.866 582.452 526.626 582.595 527.037C582.688 527.493 581.964 527.741 582.239 527.99C582.347 527.741 582.588 527.63 582.947 527.632C583.584 527.947 584.694 528.265 584.363 529.178C585.194 530.107 586.48 529.674 587.779 529.892C589.024 530.104 589.785 530.995 590.369 531.911C590.632 532.166 590.251 532.397 590.369 532.862C590.944 533.117 591.383 533.5 591.194 534.522C591.646 534.784 592.307 534.828 592.61 535.236C592.499 535.841 591.849 535.9 591.55 536.308C592.313 536.249 592.31 535.46 593.08 535.358C594.019 535.23 595.324 536.046 595.787 536.66C595.778 536.966 595.33 536.829 595.318 537.14C595.948 537.14 595.954 536.514 596.616 536.545C597.445 537.249 598.43 536.773 599.324 537.018C600.508 537.346 600.993 539.25 602.622 538.919C602.885 539.337 603.104 539.368 603.216 539.749C604.016 542.666 601.203 543.211 600.86 545.214C600.582 545.211 600.511 545.417 600.152 545.333C600.041 549.141 599.491 552.506 596.851 553.769C595.667 553.56 595.435 554.321 594.73 554.598C594.452 554.601 594.381 554.395 594.022 554.479C593.673 555.277 592.666 555.411 592.254 556.141C592.19 557.038 592.464 557.598 592.372 558.522C591.324 558.892 591.367 560.357 590.016 560.422C589.191 561.6 588.619 563.969 586.953 564.218C586.427 564.3 586.007 564.34 585.669 564.351C585.866 564.732 585.954 565.361 585.773 566.365C585.516 567.78 583.247 567.964 581.528 567.908C581.343 568.553 581.411 569.248 581.293 569.921C580.369 570.17 579.905 570.073 579.17 569.687C579.176 570.08 579.371 570.285 579.29 570.756C579.717 570.837 580.338 570.731 580.35 571.23C580.344 571.657 579.859 571.6 579.408 571.585C579.265 572.233 578.969 572.728 578.935 573.489C578.53 573.828 577.915 573.962 577.405 574.203C577.497 574.617 577.225 574.658 577.284 575.031C577.411 575.658 578.44 575.377 578.7 575.867C578.684 577.434 576.926 577.244 577.049 578.955C576.292 579.026 575.955 579.516 575.872 580.261C576.4 580.722 576.635 581.47 576.697 582.402C577.142 583.296 578.242 583.53 579.17 583.947C578.703 584.623 577.309 584.365 576.576 584.776C576.459 584.776 576.345 584.776 576.224 584.776C575.646 584.368 575.108 583.922 574.573 583.467C574.885 583.096 575.182 582.903 574.811 582.402C574.338 581.981 574.641 583.109 573.986 582.872C573.269 582.607 572.632 582.261 572.1 581.806C572.264 581.167 571.881 581.074 571.748 580.737C572.388 579.747 570.922 578.506 570.922 577.051C571.158 576.814 571.878 577.064 571.983 576.693C571.389 576.689 571.865 576.344 571.748 575.863C570.941 576.004 570.613 575.658 570.57 575.028C570.753 574.543 571.225 574.349 571.631 574.078C571.621 574.446 571.986 574.43 572.338 574.437C572.53 572.987 572.938 571.859 572.808 570.512C572.141 570.868 572.79 572.554 571.631 572.411C571.921 570.201 572.478 568.796 572.221 566.592C572.793 565.222 573.698 563.751 573.869 561.962C573.924 561.36 573.714 560.802 573.751 560.179C573.819 559.091 574.381 557.758 574.576 557.091C574.963 555.804 574.505 554.433 574.697 553.173C574.845 552.18 575.337 551.241 574.932 550.082C573.479 548.655 571.436 547.826 569.983 546.399C569.176 543.251 567.3 541.182 565.977 538.558C566.187 537.58 567.269 537.483 567.628 536.654C567.358 536.454 566.83 537.287 566.332 536.897C566.332 536.458 566.332 536.022 566.332 535.588C566.944 534.74 567.89 534.229 568.1 532.977C568.391 532.752 568.753 532.606 569.043 532.382C569.46 530.661 569.38 527.9 567.392 527.869C567.105 528.056 567.442 528.87 567.04 528.938C566.048 528.801 565.464 528.119 564.802 528.586C564.271 527.772 563.56 527.14 562.561 526.803C562.388 525.629 561.59 525.086 561.145 524.186C559.699 524.338 559.325 523.407 557.844 523.597C557.22 523.179 556.719 521.98 555.724 521.814C555.121 521.711 554.391 522.095 553.838 522.051C552.496 521.948 551.016 520.963 549.715 520.39C548.32 519.773 547.371 519.611 546.651 518.37C546.583 517.651 546.911 517.451 546.886 517.062C545.863 515.799 544.815 514.556 543.588 513.5C543.588 513.26 543.588 513.023 543.588 512.786C542.129 511.923 541.059 510.661 540.528 508.866C540.218 508.701 539.745 508.701 539.464 508.508C539.866 511.353 542.398 512.044 542.88 514.806C543.606 514.722 544.055 515.806 543.353 516.112C542.676 515.167 541.109 515.127 541.23 513.378C540.728 512.696 539.44 512.808 539.229 511.832C539.366 511.733 539.545 511.677 539.817 511.714C537.873 509.57 537.672 506.335 534.395 505.656C534.583 504.765 533.4 504.02 533.217 502.805C532.686 502.745 532.577 502.262 532.274 501.97C532.299 501.072 531.727 500.78 531.566 500.071C531.999 499.408 531.724 498.529 531.449 497.93C532.559 496.616 531.474 493.418 531.687 492.346C530.75 492.377 530.571 491.648 529.919 491.396C529.48 491.007 528.624 491.043 528.624 490.209C528.868 489.782 529.647 490.43 529.801 490.09C529.31 489.81 528.642 489.055 529.094 488.544C528.16 488.735 528.055 488.09 527.916 487.476C527.418 487.503 527.155 487.292 526.741 487.238C526.265 485.618 525.554 484.013 524.383 483.437C524.247 482.427 523.437 482.093 522.967 481.417C520.89 482.234 520.157 479.8 518.723 479.401C518.46 479.327 518.63 479.629 518.253 479.641C518.04 479.644 517.928 479.383 517.783 479.401C517.425 479.451 517.072 479.76 516.606 479.757C515.159 479.744 514.296 478.301 512.717 478.451C512.751 478.875 513.128 479.37 512.834 479.757C511.558 479.737 511.057 480.093 510.124 480.585C509.901 480.339 509.746 480.018 509.654 479.638C510 478.952 510.513 478.444 511.184 478.09C509.638 478.313 509.184 479.638 508.238 480.467C508.445 480.579 508.501 480.841 508.476 481.181C505.941 483.14 503.552 485.244 499.874 486.048C499.419 486.578 498.099 487.382 497.515 487.002C499.098 485.902 500.615 484.743 502.819 484.272C503.416 483.527 504.191 482.963 505.057 482.49C504.637 481.589 505.849 481.199 505.41 481.062C504.386 481.324 503.647 481.259 503.054 480.585C502.764 480.888 502.674 481.39 502.111 481.417C501.076 481.203 501.7 480.236 501.521 479.516C500.677 479.473 498.896 480.264 498.578 478.925C498.872 478.707 499.428 478.753 499.518 478.332C499.351 477.908 498.6 478.068 498.222 477.856C498.226 476.475 499.391 476.263 499.988 475.481C501.131 475.833 501.422 474.955 502.464 474.889C502.433 474.487 502.553 473.926 502.346 473.701C500.782 474.157 497.199 474.256 496.689 472.274C497.963 471.878 499.756 470.329 500.81 471.8C501.465 471.626 502.334 471.667 502.698 471.205C502.331 470.906 501.688 470.875 501.048 470.85C500.201 469.722 498.609 469.348 497.75 468.235C499.236 467.718 500.847 467.319 501.518 465.979C503.277 465.739 504.232 464.356 506.114 464.555C507.017 464.649 507.898 465.34 509.06 464.911C509.456 464.988 509.202 465.717 509.768 465.624C510.871 465.191 511.397 465.708 512.603 465.873C513.14 465.938 513.703 465.78 514.136 465.873C514.714 465.995 515.051 466.465 515.551 466.465C516.028 466.462 516.358 465.904 516.847 466.107C517.706 466.836 518.683 466.559 520.031 467.058C520.776 467.335 521.307 468.021 521.796 468.008C522.547 467.983 522.794 467.123 523.564 467.058C524.825 467.556 525.4 466.419 526.627 466.226C527.081 466.444 527.508 466.689 528.28 466.581C528.8 466.475 528.475 465.511 529.103 465.511C529.582 466.101 529.826 466.917 530.516 467.294C531.177 467.285 530.917 466.35 531.576 466.343V466.343ZM497.516 518.13C497.207 518.252 496.79 518.271 496.338 518.246C496.533 517.704 496.233 518.343 495.868 518.246C495.939 517.564 495.63 517.613 495.161 517.295C495.992 516.877 497.29 517.295 497.516 518.13V518.13ZM493.86 516.825C494.213 515.927 495.409 516.614 495.038 517.417C494.513 517.352 494.114 517.162 493.86 516.825V516.825ZM490.914 516.467C490.914 516.349 490.914 516.234 490.914 516.112C491.693 516.065 491.925 515.872 492.565 515.516C492.574 515.962 492.694 515.853 492.565 516.23C491.718 515.968 491.405 516.751 490.914 516.467V516.467ZM499.16 520.032C498.585 520.206 498.115 520.483 497.629 520.745C497.215 520.068 497.246 519.128 497.629 518.485C498.396 518.744 498.869 519.299 499.16 520.032V520.032ZM666.022 547.829C666.876 547.465 668.211 547.58 668.968 547.115C669.181 546.103 669.791 545.486 670.378 544.862C671.191 545.308 671.376 546.386 671.561 547.47C671.661 547.972 671.033 547.733 670.854 547.947C670.937 548.465 670.653 548.617 670.733 549.135C668.984 550.353 670.331 555.324 668.26 555.907C665.376 556.711 665.178 552.123 666.847 550.796C666.594 549.783 666.035 549.078 666.022 547.829V547.829ZM709.263 530.72C710.61 533.086 713.856 533.528 714.799 536.305C715.198 536.46 715.739 536.47 715.977 536.781C715.825 537.779 715.692 538.792 715.389 539.636C712.614 539.1 710.901 535.538 709.498 533.098C709.325 532.796 709.01 532.341 708.787 532.148C708.101 531.534 706.583 531.387 707.38 530.25C708.156 530.256 708.323 530.876 709.263 530.72V530.72ZM722.459 540.106C722.583 540.381 722.867 540.487 722.815 540.942C722.329 541.035 722.206 540.758 721.751 540.824C722.249 541.428 723.708 541.066 723.875 542.011C720.737 542.083 719.078 540.668 715.98 540.709C715.826 540.381 715.693 540.045 715.745 539.515C717.931 540.153 719.359 540.403 722.459 540.106V540.106ZM730.94 530.487C730.443 530.16 730.347 529.415 729.994 528.941C729.605 528.751 729.314 529.562 728.467 529.3C728.78 528.898 728.956 528.362 729.293 527.99C730.501 527.941 731.447 527.623 731.534 526.445C732.306 526.769 732.214 527.972 732.239 529.056C731.432 529.153 731.379 530.019 730.94 530.487V530.487ZM723.52 538.561C722.203 537.948 720.825 537.393 719.276 537.016C719.088 535.451 717.353 534.738 718.924 532.98C719.424 533.033 719.493 533.516 719.749 533.815C720.244 533.557 720.182 532.743 720.457 532.266C722.877 532.136 723.434 529.486 725.285 529.178C725.508 530.023 726.38 530.213 726.583 531.076C726.244 531.294 725.665 531.257 725.4 531.553C725.242 532.902 726.067 533.26 726.228 534.283C724.349 534.722 724.803 537.52 723.52 538.561V538.561ZM729.417 527.754C729.349 527.336 729.834 527.464 729.769 527.04C729.441 526.732 729.024 526.523 728.591 526.33C728.662 525.94 728.514 525.775 728.474 525.494C726.591 524.675 726.727 528.35 724.817 527.873C725.275 526.791 726.622 526.604 726.471 524.896C726.792 524.709 727.182 524.588 727.645 524.544C727.639 524.198 727.38 524.105 727.179 523.949C727.29 523.703 727.417 523.478 727.528 523.235C727.475 522.618 726.928 522.5 726.706 522.048C726.638 520.362 727.992 518.795 729.417 520.028C728.675 521.126 728.208 523.323 729.417 524.186C729.958 523.996 730.217 524.18 730.83 524.186C730.486 524.855 731.574 524.775 731.655 525.373C731.154 526.417 730.628 527.43 729.417 527.754V527.754ZM752.383 538.088C752.909 538.147 752.974 537.925 753.329 538.088C753.36 538.711 753.042 538.991 752.977 539.515C752.013 540.223 750.544 539.587 749.438 539.394C750.625 539.169 752.445 539.578 752.383 538.088V538.088ZM749.446 540.107C748.967 542.079 751.121 542.251 751.804 543.435C748.843 543.809 748.812 541.222 746.148 541.294C745.808 541.818 745.52 542.4 744.973 542.718C744.364 542.139 743.304 542.02 742.732 541.41C742.123 541.606 741.319 541.562 740.964 541.173C740.883 540.503 741.489 540.522 741.554 539.985C740.887 538.122 737.867 538.626 736.602 537.374C736.874 537.175 736.97 536.795 737.424 536.779C736.855 536.402 735.901 536.417 735.304 536.065C735.304 534.887 737.14 535.034 738.136 535.23C738.426 535.894 738.506 536.766 738.84 537.374C740.073 537.387 740.553 535.76 741.789 535.828C742.163 535.85 742.855 536.505 743.437 536.779C744.086 537.09 744.673 537.352 745.205 537.611C747.069 538.539 748.936 538.801 749.446 540.107V540.107ZM747.562 497.105C747.602 497.582 747.29 497.707 747.326 498.177C746.492 497.853 745.908 498.38 745.444 498.772C744.99 498.673 744.693 498.42 744.266 498.299C744.105 498.342 744.081 498.508 743.908 498.536C744.103 499.527 744.823 499.894 744.854 500.792C744.91 502.387 743.141 503.974 742.968 505.544C741.695 505.435 740.078 505.937 739.435 506.85C738.44 506.37 737.562 508.495 736.959 506.968C737.234 506.261 738.297 506.342 738.962 506.018C738.19 505.837 737.113 506.373 736.369 506.61C737.015 507.124 736.563 508.922 735.661 508.988C735.092 508.726 735.021 507.968 734.715 507.442C735.463 505.815 737.169 504.675 739.311 504.828C740.14 504.438 740.468 503.537 740.721 502.568C741.252 503.185 742.199 502.817 742.616 502.334C742.585 500.948 743.444 500.004 742.965 498.536C743.429 497.535 744.548 497.195 744.266 495.445C745.685 495.675 746.09 496.928 747.562 497.105V497.105ZM745.086 486.054C745.274 486.026 745.286 486.169 745.438 486.179C745.877 486.943 745.663 487.846 745.787 488.669C745.994 489.972 746.887 491.006 746.73 492.116C746.381 492.408 746.254 491.717 745.904 491.638C744.779 492.424 745.938 493.724 745.67 494.848C745.237 494.593 744.588 494.272 744.26 494.848C743.877 494.144 744.393 493.324 744.612 492.826C744.816 490.616 744.136 487.522 745.086 486.054V486.054ZM721.862 553.41C722.999 551.425 726.356 551.684 728.464 550.68C728.798 549.87 728.804 548.726 729.29 548.063C730.112 547.766 730.35 548.178 730.937 547.829C731.661 547.389 731.441 546.339 732.115 546.165C732.959 545.947 733.398 546.853 734.356 546.997C734.535 546.03 734.705 545.049 735.299 544.503C736.229 544.609 736.779 543.862 737.54 543.909C738.016 543.936 738.137 544.395 738.603 544.503C739.271 544.656 739.914 543.983 740.483 544.619C740.445 545.244 736.641 548.908 743.664 548.898C744.653 547.95 743.806 545.155 744.257 543.668C745.36 543.036 745.777 544.815 745.902 545.928C747.169 546.529 747.32 548.626 748.028 549.733C748.655 550.715 750.294 550.914 750.501 552.581C750.73 552.824 751.258 552.765 751.561 552.937C751.917 554.806 753.601 555.17 753.796 556.736C754.04 558.673 753.691 561.042 752.971 562.557C752.436 563.675 751.41 564.336 751.085 565.526C750.89 566.243 751.246 566.86 750.733 567.188C749.11 566.225 748.108 569.054 747.079 567.066C746.486 567.147 746.489 567.829 745.898 567.904C743.719 567.449 742.724 565.798 741.543 564.336C741.534 563.747 741.654 563.033 741.184 562.912C740.269 563.011 740.415 564.192 739.54 564.336C738.86 560.038 731.753 560.955 729.991 563.623C728.505 563.432 726.372 563.504 725.636 564.454C724.307 564.408 723.039 564.298 722.807 563.151C722.863 562.69 723.457 562.775 723.75 562.557C723.25 560.369 722.397 558.533 721.624 556.62C722.112 555.937 722.035 554.404 721.862 553.41V553.41ZM749.797 569.213C750.112 570.18 749.466 571.158 749.445 572.183C749.003 572.23 748.675 572.233 748.035 572.299C747.624 571.597 747.281 570.843 746.734 570.286C746.681 569.871 746.783 569.616 746.854 569.332C747.361 569.628 749.015 569.631 749.797 569.213V569.213Z" fill="#E2E2E8"/>
</g>
<rect x="583.013" y="464.168" width="187" height="108" rx="3.5" stroke="#175CFF"/>
<defs>
<filter id="filter0_d" x="0.000976562" y="0" width="904" height="719" filterUnits="userSpaceOnUse" color-interpolation-filters="sRGB">
<feFlood flood-opacity="0" result="BackgroundImageFix"/>
<feColorMatrix in="SourceAlpha" type="matrix" values="0 0 0 0 0 0 0 0 0 0 0 0 0 0 0 0 0 0 127 0"/>
<feOffset dx="10" dy="10"/>
<feGaussianBlur stdDeviation="35"/>
<feColorMatrix type="matrix" values="0 0 0 0 0 0 0 0 0 0 0 0 0 0 0 0 0 0 0.1 0"/>
<feBlend mode="normal" in2="BackgroundImageFix" result="effect1_dropShadow"/>
<feBlend mode="normal" in="SourceGraphic" in2="effect1_dropShadow" result="shape"/>
</filter>
</defs>
</svg>
